<?xml version="1.0" standalone="no"?>
<!DOCTYPE svg PUBLIC "-//W3C//DTD SVG 20010904//EN" "http://www.w3.org/TR/2001/REC-SVG-20010904/DTD/svg10.dtd">
<svg version="1.0" xmlns="http://www.w3.org/2000/svg" width="96" height="96" viewbox="0 0 96 96" preserveAspectRatio="xMaxYMin meet">
    <path d="
        M 1 16
        L 71 16
        A 24, 24, 1, 0, 1, 95, 40
        L 25 40
        A 24, 24, 1, 0, 1, 1, 16
        M 25 58
        A 12, 12, 1, 0, 1, 37, 70
        A 12, 12, 1, 0, 1, 25, 82
        A 12, 12, 1, 0, 1, 13, 70
        A 12, 12, 1, 0, 0, 25, 58
        M 73 58
        A 12, 12, 1, 0, 1, 84, 70
        A 12, 12, 1, 0, 1, 73, 82
        A 12, 12, 1, 0, 1, 61, 70
        A 12, 12, 1, 0, 1, 73, 58
    "
    stroke="black"
    stroke-linecap="square" />
</svg>