<?xml version="1.0" standalone="no"?>
<!DOCTYPE svg PUBLIC "-//W3C//DTD SVG 20010904//EN" "http://www.w3.org/TR/2001/REC-SVG-20010904/DTD/svg10.dtd">
<svg version="1.0" xmlns="http://www.w3.org/2000/svg" width="96" height="72" viewbox="0 0 96 72" preserveAspectRatio="xMaxYMin meet">
    <path d="
        M 1 1
        L 71 1
        A 24, 24, 1, 0, 1, 95, 25
        L 25 25
        A 24, 24, 1, 0, 1, 1, 1
        M 25 43
        A 12, 12, 1, 0, 1, 37, 55
        A 12, 12, 1, 0, 1, 25, 67
        A 12, 12, 1, 0, 1, 13, 55
        A 12, 12, 1, 0, 0, 25, 43
        M 73 43
        A 12, 12, 1, 0, 1, 84, 55
        A 12, 12, 1, 0, 1, 73, 67
        A 12, 12, 1, 0, 1, 61, 55
        A 12, 12, 1, 0, 1, 73, 43
    "
    stroke="black"
    stroke-linecap="square" />
</svg>